<svg id="Layer_1" enable-background="new 0 0 512.003 512.003" height="512" viewBox="0 0 512.003 512.003" width="512" xmlns="http://www.w3.org/2000/svg"><g><g><path d="m509.514 421.668c-3.975-13.895-12.623-23.57-23.728-26.545l-20.891-5.598c1.37-2.705 2.534-5.647 3.442-8.823 3.52-12.306 3.3-27.138-.619-41.763-8.708-32.498-32.502-53.409-54.165-47.603l-6.03 1.616c13.909-50.506 6.157-95.967-3.548-126.47-11.694-36.755-28.346-59.895-29.049-60.862-2.356-3.241-6.422-4.762-10.322-3.867-3.905.896-6.899 4.035-7.607 7.978-3.362 18.702-12.411 32.089-21.009 41.003 7.06-59.412-12.229-95.86-31.052-116.635-23.39-25.817-50.838-33.441-51.994-33.753-3.869-1.042-7.991.325-10.468 3.478s-2.83 7.48-.899 10.993c22.371 40.708 12.48 54.12-3.905 76.34-6.754 9.158-14.333 19.437-20.226 32.759-7.911-17.224-20.729-31.424-39.031-43.716-3.431-2.304-7.927-2.261-11.313.111s-4.963 6.582-3.97 10.594c9.876 39.881-9.72 62.993-30.466 87.462-23.772 28.039-50.379 59.44-26.288 115.094l-7.926-2.124c-21.664-5.807-45.458 15.105-54.166 47.604-5.078 18.951-3.755 37.461 2.829 50.584l-20.897 5.599c-11.104 2.975-19.752 12.65-23.727 26.545-3.521 12.306-3.301 27.137.618 41.764 3.919 14.625 11.145 27.58 20.347 36.477 8.155 7.886 17.504 12.08 26.519 12.08 2.47 0 4.914-.315 7.302-.955.002-.001.004-.001.007-.002l198.72-53.247 198.728 53.249c2.432.652 4.889.967 7.35.967 19.465-.001 39.086-19.719 46.816-48.569 3.918-14.627 4.138-29.459.618-41.765zm-90.785-111.013c9.134-2.445 23.746 11.349 29.671 33.461.466 1.738.856 3.483 1.188 5.225l-18.461 4.947c-5.335 1.429-8.501 6.913-7.071 12.248 1.197 4.468 5.237 7.414 9.653 7.414.856 0 1.728-.111 2.594-.343l13.943-3.736c-.278 1.859-.655 3.645-1.138 5.332-1.995 6.976-5.521 11.614-9.674 12.727l-358.32 96.012c3.28-11.794 3.281-26.236-.733-41.215-3.86-14.408-10.933-27.186-19.94-36.068zm-270.809-119.354c17.852-21.056 37.636-44.394 37.895-79.037 15.072 16.087 21.522 35.587 21.522 62.737 0 5.523 4.478 10 10 10s10-4.478 10-10c0-36.137 13.436-54.355 26.429-71.974 14.246-19.319 27.846-37.764 16.709-72.252 6.498 4.268 13.621 9.974 20.275 17.461 25.951 29.2 33.127 70.78 21.328 123.584-.837 3.748.546 7.644 3.559 10.025 3.012 2.382 7.122 2.828 10.576 1.147 1.405-.684 29.068-14.495 43.528-47.023 4.903 9.45 10.632 22.143 15.387 37.245 13.619 43.26 13.473 85.572-.408 125.847l-61.557 16.494c.563-3.635 1.025-7.254 1.355-10.833.507-5.5-3.54-10.369-9.039-10.876-5.501-.519-10.369 3.539-10.877 9.039-.557 6.04-1.517 12.217-2.815 18.399l-45.784 12.268-58.015-15.545c-4.764-20.811-2.376-37.691 7.902-53.455 3.4 9.076 9.1 19.2 18.599 26.255 3.506 2.604 8.294 2.633 11.83.071 1.855-1.345 38.939-28.779 45.757-75.666 1.549 2.211 3.097 4.567 4.614 7.069 2.865 4.722 9.016 6.229 13.737 3.362 4.722-2.865 6.227-9.015 3.362-13.736-6.8-11.207-15.265-21.721-24.479-30.405-3.063-2.886-7.605-3.545-11.361-1.651-3.757 1.895-5.926 5.939-5.427 10.117 2.576 21.526-2.892 42.204-16.251 61.461-5.442 7.844-11.178 13.884-15.383 17.839-8.561-11.038-9.95-27.062-9.964-27.228-.289-3.9-2.824-7.273-6.49-8.635-3.664-1.362-7.789-.461-10.554 2.303-22.476 22.476-31.313 47.104-27.247 76.576l-44.44-11.908c-30.829-54.155-10.232-78.456 15.727-109.075zm-84.609 153.963 19.065 5.108c.867.232 1.737.343 2.594.343 4.415 0 8.456-2.947 9.653-7.414 1.43-5.335-1.736-10.818-7.071-12.248l-16.603-4.449c6.899-11.435 15.95-17.655 22.325-15.95l124.091 33.25-150.154 40.235c-5.53-6.839-8.225-21.66-3.9-38.875zm-40.885 112.992c-2.95-11.014-3.209-22.344-.708-31.087 1.995-6.976 5.521-11.614 9.674-12.727.696-.187 1.427-.278 2.185-.278 3.765 0 8.216 2.266 12.557 6.463 6.537 6.321 11.979 16.263 14.93 27.276 5.926 22.113.154 41.37-8.966 43.813-4.145 1.113-9.524-1.142-14.74-6.185-6.538-6.321-11.981-16.263-14.932-27.275zm312.923-21.732c.155.049.305.107.463.15l30.83 8.261c.866.232 1.737.343 2.594.343 4.415 0 8.456-2.947 9.653-7.414 1.263-4.714-1.065-9.539-5.304-11.585l71.024-19.031c1.358-.364 2.679-.831 3.96-1.391l2.991.802c-9.006 8.883-16.08 21.66-19.939 36.068-4.014 14.979-4.013 29.421-.733 41.215l-136.251-36.508zm154.227 21.731c-5.926 22.115-20.565 35.903-29.671 33.461-9.12-2.444-14.892-21.7-8.966-43.814 2.951-11.013 8.393-20.955 14.93-27.275 4.342-4.198 8.791-6.463 12.557-6.463.758 0 1.488.092 2.185.278 4.152 1.113 7.679 5.751 9.674 12.727 2.5 8.743 2.243 20.073-.709 31.086z"/><path d="m301.967 258.881c0 5.523 4.481 10 10.004 10s10-4.477 10-10-4.478-10-10-10h-.008c-5.522 0-9.996 4.477-9.996 10z"/><path d="m125.221 438.999c.856 0 1.728-.111 2.594-.343l22.027-5.902c5.335-1.429 8.501-6.913 7.071-12.247s-6.914-8.501-12.247-7.071l-22.027 5.902c-5.335 1.429-8.501 6.913-7.071 12.247 1.197 4.468 5.237 7.414 9.653 7.414z"/><path d="m277.208 393.95c.856 0 1.728-.111 2.594-.343l22.026-5.902c5.335-1.429 8.501-6.913 7.071-12.248-1.43-5.334-6.913-8.502-12.247-7.071l-22.026 5.902c-5.335 1.429-8.501 6.913-7.071 12.248 1.197 4.468 5.237 7.414 9.653 7.414z"/></g></g></svg>