<svg version="1.1" id="Capa_1" xmlns="http://www.w3.org/2000/svg" xmlns:xlink="http://www.w3.org/1999/xlink" x="0px" y="0px"
	 viewBox="0 0 512 512" style="enable-background:new 0 0 512 512" xml:space="preserve">
<g>
	<g>
		<path d="M437.952,242.976L334.816,96H336c8.832,0,16-7.168,16-16V16c0-8.832-7.168-16-16-16H80c-8.832,0-16,7.168-16,16v64
			c0,8.832,7.168,16,16,16h0.384C70.24,109.408,64,125.92,64,144v160c0,26.464,21.536,48,48,48c8.608,0,16.544-2.464,23.52-6.432
			C144.064,359.008,158.944,368,176,368c8.608,0,16.544-2.464,23.52-6.432C208.064,375.008,222.944,384,240,384
			c5.632,0,10.976-1.152,16-2.944V464c0,26.464,21.536,48,48,48s48-21.536,48-48V288.672l10.304,12.96
			c7.904,10.208,19.296,16.672,32.096,18.112c12.736,1.472,25.408-2.176,35.136-10.112c10.24-7.904,16.672-19.328,18.144-32.096
			C449.152,264.704,445.472,252.096,437.952,242.976z M96,32h224v32h-32.64H144H96V32z M415.904,273.856
			c-0.48,4.128-2.592,7.84-6.24,10.688c-3.328,2.656-7.424,3.872-11.584,3.392c-4.16-0.48-7.84-2.56-10.56-6.08l-38.976-48.96
			c-0.224-0.224-0.512-0.352-0.704-0.576c-0.736-0.832-1.6-1.44-2.496-2.112c-0.832-0.576-1.568-1.216-2.464-1.632
			c-0.864-0.416-1.792-0.608-2.752-0.864c-1.088-0.288-2.144-0.608-3.264-0.672c-0.32,0-0.576-0.16-0.864-0.16
			c-0.704,0-1.312,0.32-1.984,0.384c-1.12,0.16-2.176,0.288-3.264,0.672c-1.024,0.352-1.92,0.896-2.816,1.44
			c-0.64,0.384-1.344,0.512-1.92,0.96c-0.224,0.192-0.352,0.512-0.576,0.704c-0.832,0.736-1.44,1.6-2.08,2.496
			c-0.608,0.8-1.248,1.568-1.664,2.464c-0.416,0.832-0.608,1.792-0.864,2.72c-0.288,1.088-0.608,2.144-0.672,3.296
			c0,0.288-0.16,0.544-0.16,0.864V464c0,8.8-7.2,16-16,16s-16-7.2-16-16V272c0-8.832-7.168-16-16-16c-8.832,0-16,7.168-16,16v64
			c0,8.8-7.2,16-16,16s-16-7.2-16-16v-48c0-8.832-7.168-16-16-16c-8.832,0-16,7.168-16,16v32c0,8.8-7.2,16-16,16s-16-7.2-16-16v-48
			c0-8.832-7.168-16-16-16c-8.832,0-16,7.168-16,16v32c0,8.8-7.2,16-16,16s-16-7.2-16-16V144c0-26.464,21.536-48,48-48h143.36
			c5.248,0,10.112,2.528,13.12,6.784l112,159.488C415.168,265.568,416.384,269.664,415.904,273.856z"/>
	</g>
</g>
</svg>
